<svg width="3019" height="61" viewBox="0 0 3019 61" fill="none" xmlns="http://www.w3.org/2000/svg">
    <path fill-rule="evenodd" clip-rule="evenodd"
        d="M0 38.6342L17.6108 33.664C37.7375 28.6938 75.475 18.7535 110.697 17.5109C148.434 16.2684 186.172 23.7237 223.909 21.2386C261.647 18.7535 299.384 6.32803 334.606 5.08548C372.343 3.84294 410.081 13.7833 447.818 13.7833C485.556 13.7833 520.778 3.84294 558.515 7.57057C596.253 11.2982 633.99 28.6938 671.728 31.1789C706.949 33.664 744.687 21.2386 782.424 21.2386C820.162 21.2386 857.899 33.664 895.637 33.664C930.858 33.664 968.596 21.2386 1006.33 16.2684C1044.07 11.2982 1081.81 13.7833 1117.03 22.4811C1154.77 31.1789 1192.51 46.0895 1230.24 51.0596C1267.98 56.0298 1305.72 51.0596 1340.94 49.8171C1378.68 48.5746 1416.41 51.0596 1454.15 46.0895C1491.89 41.1193 1527.11 28.6938 1564.85 24.9662C1602.59 21.2386 1640.32 26.2087 1678.06 26.2087C1713.28 26.2087 1751.02 21.2386 1788.76 26.2087C1826.5 31.1789 1864.23 46.0895 1901.97 46.0895C1937.19 46.0895 1974.93 31.1789 2012.67 23.7237C2050.4 16.2684 2088.14 16.2684 2123.36 23.7237C2161.1 31.1789 2198.84 46.0895 2236.58 47.332C2274.31 48.5746 2312.05 36.1491 2347.27 34.9066C2385.01 33.664 2422.75 43.6044 2460.49 44.8469C2498.22 46.0895 2533.44 38.6342 2571.18 38.6342C2608.92 38.6342 2646.66 46.0895 2684.39 41.1193C2719.62 36.1491 2757.35 18.7535 2795.09 8.81312C2832.83 -1.12724 2870.57 -3.61233 2908.3 6.32803C2943.53 16.2684 2981.26 38.6342 3001.39 49.8171L3019 61V61H3001.39C2981.26 61 2943.53 61 2908.3 61C2870.57 61 2832.83 61 2795.09 61C2757.35 61 2719.62 61 2684.39 61C2646.66 61 2608.92 61 2571.18 61C2533.44 61 2498.22 61 2460.49 61C2422.75 61 2385.01 61 2347.27 61C2312.05 61 2274.31 61 2236.58 61C2198.84 61 2161.1 61 2123.36 61C2088.14 61 2050.4 61 2012.67 61C1974.93 61 1937.19 61 1901.97 61C1864.23 61 1826.5 61 1788.76 61C1751.02 61 1713.28 61 1678.06 61C1640.32 61 1602.59 61 1564.85 61C1527.11 61 1491.89 61 1454.15 61C1416.41 61 1378.68 61 1340.94 61C1305.72 61 1267.98 61 1230.24 61C1192.51 61 1154.77 61 1117.03 61C1081.81 61 1044.07 61 1006.33 61C968.596 61 930.858 61 895.637 61C857.899 61 820.162 61 782.424 61C744.687 61 706.949 61 671.728 61C633.99 61 596.253 61 558.515 61C520.778 61 485.556 61 447.818 61C410.081 61 372.343 61 334.606 61C299.384 61 261.647 61 223.909 61C186.172 61 148.434 61 110.697 61C75.475 61 37.7375 61 17.6108 61H0V38.6342Z"
        fill="#489FB5" />
</svg>