<svg width="3019" height="177" viewBox="0 0 3019 177" fill="none" xmlns="http://www.w3.org/2000/svg">
    <path fill-rule="evenodd" clip-rule="evenodd"
        d="M3019 -29.5179L2993.84 -17.5298C2968.68 -5.54167 2918.37 18.4345 2868.05 42.4107C2817.73 66.3869 2767.42 90.3631 2717.1 96.3571C2666.78 102.351 2616.47 90.3631 2566.15 63.3899C2515.83 36.4167 2465.52 -5.54167 2415.2 -17.5298C2364.88 -29.5179 2314.57 -11.5357 2264.25 -5.54167C2213.93 0.452375 2163.62 -5.54167 2113.3 -14.5327C2062.98 -23.5238 2012.67 -35.5119 1962.35 -32.5149C1912.03 -29.5179 1861.72 -11.5357 1811.4 -5.54167C1761.08 0.452375 1710.77 -5.54167 1660.45 0.452375C1610.13 6.44642 1559.82 24.4286 1509.5 42.4107C1459.18 60.3928 1408.87 78.375 1358.55 87.3661C1308.23 96.3571 1257.92 96.3571 1207.6 99.3541C1157.28 102.351 1106.97 108.345 1056.65 87.3661C1006.33 66.3869 956.017 18.4345 905.7 -5.54167C855.383 -29.5179 805.067 -29.5179 754.75 -8.53869C704.433 12.4405 654.117 54.3988 603.8 66.3869C553.483 78.375 503.167 60.3928 452.85 42.4107C402.533 24.4286 352.217 6.44642 301.9 15.4375C251.583 24.4286 201.267 60.3928 150.95 63.3899C100.633 66.3869 50.3166 36.4167 25.1583 21.4315L-5.34058e-05 6.44642V-47.5H25.1583C50.3166 -47.5 100.633 -47.5 150.95 -47.5C201.267 -47.5 251.583 -47.5 301.9 -47.5C352.217 -47.5 402.533 -47.5 452.85 -47.5C503.167 -47.5 553.483 -47.5 603.8 -47.5C654.117 -47.5 704.433 -47.5 754.75 -47.5C805.067 -47.5 855.383 -47.5 905.7 -47.5C956.017 -47.5 1006.33 -47.5 1056.65 -47.5C1106.97 -47.5 1157.28 -47.5 1207.6 -47.5C1257.92 -47.5 1308.23 -47.5 1358.55 -47.5C1408.87 -47.5 1459.18 -47.5 1509.5 -47.5C1559.82 -47.5 1610.13 -47.5 1660.45 -47.5C1710.77 -47.5 1761.08 -47.5 1811.4 -47.5C1861.72 -47.5 1912.03 -47.5 1962.35 -47.5C2012.67 -47.5 2062.98 -47.5 2113.3 -47.5C2163.62 -47.5 2213.93 -47.5 2264.25 -47.5C2314.57 -47.5 2364.88 -47.5 2415.2 -47.5C2465.52 -47.5 2515.83 -47.5 2566.15 -47.5C2616.47 -47.5 2666.78 -47.5 2717.1 -47.5C2767.42 -47.5 2817.73 -47.5 2868.05 -47.5C2918.37 -47.5 2968.68 -47.5 2993.84 -47.5H3019V-29.5179Z"
        fill="#82C0CC" fill-opacity="0.2" />
    <path fill-rule="evenodd" clip-rule="evenodd"
        d="M3019 177L2969 148.077C2918 118.878 2818 60.7558 2717 64.8877C2616 69.0196 2516 135.406 2415 131.274C2315 127.142 2214 52.2166 2113 35.689C2013 19.1614 1912 60.7558 1811 64.8877C1711 69.0196 1610 35.689 1509 15.0294C1409 -5.90552 1308 -14.1693 1208 6.49018C1107 27.4252 1006 77.2834 906 106.482C805 135.406 704 143.945 604 152.209C503 160.472 403 168.736 302 168.736C201 168.736 101 160.472 50 156.34L0 152.209V-47.5H50C101 -47.5 201 -47.5 302 -47.5C403 -47.5 503 -47.5 604 -47.5C704 -47.5 805 -47.5 906 -47.5C1006 -47.5 1107 -47.5 1208 -47.5C1308 -47.5 1409 -47.5 1509 -47.5C1610 -47.5 1711 -47.5 1811 -47.5C1912 -47.5 2013 -47.5 2113 -47.5C2214 -47.5 2315 -47.5 2415 -47.5C2516 -47.5 2616 -47.5 2717 -47.5C2818 -47.5 2918 -47.5 2969 -47.5H3019V177Z"
        fill="#82C0CC" fill-opacity="0.2" />
    <path fill-rule="evenodd" clip-rule="evenodd"
        d="M3019 143.25L2969 118.675C2918 93.8656 2818 44.4813 2717 47.992C2616 51.5028 2516 107.909 2415 104.398C2315 100.887 2214 37.2258 2113 23.1828C2013 9.13988 1912 44.4813 1811 47.992C1711 51.5028 1610 23.1828 1509 5.62914C1409 -12.1586 1308 -19.1801 1208 -1.62638C1107 16.1614 1006 58.5242 906 83.3334C805 107.909 704 115.164 604 122.186C503 129.207 403 136.229 302 136.229C201 136.229 101 129.207 50 125.696L0 122.186V-47.5H50C101 -47.5 201 -47.5 302 -47.5C403 -47.5 503 -47.5 604 -47.5C704 -47.5 805 -47.5 906 -47.5C1006 -47.5 1107 -47.5 1208 -47.5C1308 -47.5 1409 -47.5 1509 -47.5C1610 -47.5 1711 -47.5 1811 -47.5C1912 -47.5 2013 -47.5 2113 -47.5C2214 -47.5 2315 -47.5 2415 -47.5C2516 -47.5 2616 -47.5 2717 -47.5C2818 -47.5 2918 -47.5 2969 -47.5H3019V143.25Z"
        fill="#82C0CC" fill-opacity="0.2" />
    <path fill-rule="evenodd" clip-rule="evenodd"
        d="M3019 118.25L2969 96.8957C2918 75.338 2818 32.4261 2717 35.4767C2616 38.5273 2516 87.5405 2415 84.4899C2315 81.4393 2214 26.1215 2113 13.919C2013 1.71657 1912 32.4261 1811 35.4767C1711 38.5273 1610 13.919 1509 -1.33405C1409 -16.7905 1308 -22.8917 1208 -7.63865C1107 7.81779 1006 44.6285 906 66.1862C805 87.5405 704 93.8451 604 99.9463C503 106.048 403 112.149 302 112.149C201 112.149 101 106.048 50 102.997L0 99.9463V-47.5H50C101 -47.5 201 -47.5 302 -47.5C403 -47.5 503 -47.5 604 -47.5C704 -47.5 805 -47.5 906 -47.5C1006 -47.5 1107 -47.5 1208 -47.5C1308 -47.5 1409 -47.5 1509 -47.5C1610 -47.5 1711 -47.5 1811 -47.5C1912 -47.5 2013 -47.5 2113 -47.5C2214 -47.5 2315 -47.5 2415 -47.5C2516 -47.5 2616 -47.5 2717 -47.5C2818 -47.5 2918 -47.5 2969 -47.5H3019V118.25Z"
        fill="#489FB5" fill-opacity="0.2" />
    <path fill-rule="evenodd" clip-rule="evenodd"
        d="M3019 95.75L2969 71.1748C2918 46.3656 2818 -3.01871 2717 0.492025C2616 4.00276 2516 60.4086 2415 56.8979C2315 53.3871 2214 -10.2742 2113 -24.3172C2013 -38.3601 1912 -3.01871 1811 0.492025C1711 4.00276 1610 -24.3172 1509 -41.8709C1409 -59.6586 1308 -66.6801 1208 -49.1264C1107 -31.3386 1006 11.0242 906 35.8334C805 60.4086 704 67.6641 604 74.6856C503 81.7071 403 88.7285 302 88.7285C201 88.7285 101 81.7071 50 78.1963L0 74.6856V-95H50C101 -95 201 -95 302 -95C403 -95 503 -95 604 -95C704 -95 805 -95 906 -95C1006 -95 1107 -95 1208 -95C1308 -95 1409 -95 1509 -95C1610 -95 1711 -95 1811 -95C1912 -95 2013 -95 2113 -95C2214 -95 2315 -95 2415 -95C2516 -95 2616 -95 2717 -95C2818 -95 2918 -95 2969 -95H3019V95.75Z"
        fill="#489FB5" fill-opacity="0.2" />
    <path fill-rule="evenodd" clip-rule="evenodd"
        d="M3019 48.25L2969 35.9141C2918 23.4607 2818 -1.32853 2717 0.433741C2616 2.19601 2516 30.5098 2415 28.7475C2315 26.9853 2214 -4.97055 2113 -12.0196C2013 -19.0687 1912 -1.32853 1811 0.433741C1711 2.19601 1610 -12.0196 1509 -20.831C1409 -29.7598 1308 -33.2844 1208 -24.473C1107 -15.5442 1006 5.72055 906 18.1739C805 30.5098 704 34.1518 604 37.6764C503 41.2009 403 44.7255 302 44.7255C201 44.7255 101 41.2009 50 39.4386L0 37.6764V-47.5H50C101 -47.5 201 -47.5 302 -47.5C403 -47.5 503 -47.5 604 -47.5C704 -47.5 805 -47.5 906 -47.5C1006 -47.5 1107 -47.5 1208 -47.5C1308 -47.5 1409 -47.5 1509 -47.5C1610 -47.5 1711 -47.5 1811 -47.5C1912 -47.5 2013 -47.5 2113 -47.5C2214 -47.5 2315 -47.5 2415 -47.5C2516 -47.5 2616 -47.5 2717 -47.5C2818 -47.5 2918 -47.5 2969 -47.5H3019V48.25Z"
        fill="#489FB5" fill-opacity="0.2" />
</svg>