<svg width="16" height="16" viewBox="0 0 16 16" fill="none" xmlns="http://www.w3.org/2000/svg">
    <path fill-rule="evenodd" clip-rule="evenodd"
        d="M8.74902 6.29315C8.74902 7.53676 7.70906 8.5863 6.37451 8.5863C5.03996 8.5863 4 7.53676 4 6.29315C4 5.04954 5.03996 4 6.37451 4C7.70906 4 8.74902 5.04954 8.74902 6.29315ZM8.23048 9.04392C7.69802 9.38675 7.06014 9.5863 6.37451 9.5863C4.51082 9.5863 3 8.11191 3 6.29315C3 4.47439 4.51082 3 6.37451 3C8.2382 3 9.74902 4.47439 9.74902 6.29315C9.74902 7.08607 9.46186 7.81354 8.98349 8.38192L12.936 12.2391C13.1336 12.432 13.1336 12.7447 12.936 12.9376C12.7384 13.1304 12.418 13.1304 12.2203 12.9376L8.23048 9.04392Z"
        fill="rgba(0,0,0,0.6)" />
</svg>